<svg xmlns="http://www.w3.org/2000/svg" viewBox="0 0 64 64" role="img" aria-label="Эталон Клининнг">
  <defs>
    <radialGradient id="softBg" cx="32%" cy="22%" r="78%">
      <stop offset="0%" stop-color="#fffaf0"/>
      <stop offset="44%" stop-color="#f3eee6"/>
      <stop offset="100%" stop-color="#d8cec1"/>
    </radialGradient>
    <radialGradient id="goldCore" cx="28%" cy="22%" r="78%">
      <stop offset="0%" stop-color="#fff8c9"/>
      <stop offset="23%" stop-color="#efcf62"/>
      <stop offset="47%" stop-color="#b8860b"/>
      <stop offset="72%" stop-color="#f7df88"/>
      <stop offset="100%" stop-color="#7f5a12"/>
    </radialGradient>
    <linearGradient id="goldStroke" x1="8" y1="6" x2="58" y2="60" gradientUnits="userSpaceOnUse">
      <stop offset="0%" stop-color="#7b5510"/>
      <stop offset="18%" stop-color="#d4af37"/>
      <stop offset="34%" stop-color="#fff3b6"/>
      <stop offset="51%" stop-color="#b8860b"/>
      <stop offset="72%" stop-color="#f2d777"/>
      <stop offset="100%" stop-color="#7f5a12"/>
    </linearGradient>
    <linearGradient id="leaf" x1="20" y1="20" x2="45" y2="48" gradientUnits="userSpaceOnUse">
      <stop offset="0%" stop-color="#fbf8dc"/>
      <stop offset="44%" stop-color="#d4af37"/>
      <stop offset="100%" stop-color="#8a6415"/>
    </linearGradient>
    <linearGradient id="shine" x1="14" y1="10" x2="44" y2="46" gradientUnits="userSpaceOnUse">
      <stop offset="0%" stop-color="#ffffff" stop-opacity=".92"/>
      <stop offset="48%" stop-color="#ffffff" stop-opacity=".18"/>
      <stop offset="100%" stop-color="#ffffff" stop-opacity="0"/>
    </linearGradient>
    <filter id="shadow" x="-35%" y="-35%" width="170%" height="170%">
      <feDropShadow dx="0" dy="5" stdDeviation="4.5" flood-color="#2f211b" flood-opacity=".30"/>
      <feDropShadow dx="0" dy="1" stdDeviation="1" flood-color="#ffffff" flood-opacity=".55"/>
    </filter>
  </defs>
  <rect width="64" height="64" rx="18" fill="url(#softBg)"/>
  <circle cx="32" cy="32" r="22.5" fill="url(#goldCore)" stroke="url(#goldStroke)" stroke-width="2.2" filter="url(#shadow)"/>
  <circle cx="32" cy="32" r="17.1" fill="none" stroke="#fff7cf" stroke-width="1.15" opacity=".74"/>
  <path d="M19 23.5c3.8-7 11.3-10.3 18.7-8.4 4.1 1.1 7.3 3.5 9.5 6.7" fill="none" stroke="url(#shine)" stroke-width="5.2" stroke-linecap="round" opacity=".72"/>
  <path d="M20.5 36.8c9.6-1.2 15.7-7.7 20.2-17.2 3.5 8.2 1.4 17.3-5.1 22.4-4.4 3.5-10.6 4.4-15.1 1.7 3.5-.5 7.3-2.5 10.5-5.5" fill="none" stroke="#2f211b" stroke-width="4.1" stroke-linecap="round" stroke-linejoin="round"/>
  <path d="M21.8 35.5c8.9-1.6 14.2-7.2 18.3-15.2" fill="none" stroke="url(#leaf)" stroke-width="2" stroke-linecap="round" opacity=".88"/>
  <circle cx="42.8" cy="20.2" r="2.4" fill="#fff7c9" opacity=".8"/>
  <circle cx="46" cy="26.5" r="1.25" fill="#fff7c9" opacity=".55"/>
</svg>
